# xmcd
#
# Track frame offsets: 
#        150
#        18012
#        32328
#        48239
#        70274
#        88599
#        108989
#        126655
#        141025
#        160645
#        181420
#
# Disc length: 2819 seconds
#
# Revision: 0
# Processed by: cddbd v1.5.2PL0 Copyright (c) Steve Scherf et al.
# Submitted via: ExactAudioCopy v0.95b4
#
DISCID=860b010b
DTITLE=Scott Link - Coming Around
DYEAR=2007
DGENRE=Country Rock
TTITLE0=End To End
TTITLE1=I've Got You on My Mind
TTITLE2=Somone I Used to Know
TTITLE3=Coming Around
TTITLE4=Almost Always
TTITLE5=Done
TTITLE6=Night Turns Blue
TTITLE7=Picture Of You
TTITLE8=Night Turns Blue
TTITLE9=Circles
TTITLE10=Chasing A Ghost
EXTD=
EXTT0=
EXTT1=
EXTT2=
EXTT3=
EXTT4=
EXTT5=
EXTT6=
EXTT7=
EXTT8=
EXTT9=
EXTT10=
PLAYORDER=
